<?xml version="1.0" encoding="utf-8"?>
<!-- Generator: Adobe Illustrator 16.0.3, SVG Export Plug-In . SVG Version: 6.00 Build 0)  -->
<!DOCTYPE svg PUBLIC "-//W3C//DTD SVG 1.1//EN" "http://www.w3.org/Graphics/SVG/1.1/DTD/svg11.dtd">
<svg version="1.1" id="Layer_1" xmlns="http://www.w3.org/2000/svg" xmlns:xlink="http://www.w3.org/1999/xlink" x="0px" y="0px"
	 width="50px" height="50px" viewBox="0 0 50 50" enable-background="new 0 0 50 50" xml:space="preserve">
<path fill="#FFFFFF" d="M49.887,29.135v8.296c0,2.291-1.856,4.148-4.147,4.148H4.262c-2.291,0-4.148-1.857-4.148-4.148v-8.296
	c0-2.29,1.857-4.147,4.148-4.147h41.478C48.03,24.988,49.887,26.845,49.887,29.135z M45.739,22.223c0.913,0,1.816,0.18,2.659,0.532
	l-8.341-12.511c-0.77-1.154-2.064-1.847-3.451-1.847H13.395c-1.387,0-2.682,0.693-3.451,1.847L1.602,22.755
	c0.843-0.353,1.747-0.533,2.66-0.532H45.739z M41.592,30.519c-1.527,0-2.766,1.238-2.766,2.765c0,1.527,1.238,2.765,2.766,2.765
	c1.526,0,2.765-1.237,2.765-2.765C44.356,31.757,43.118,30.519,41.592,30.519z M33.296,30.519c-1.527,0-2.765,1.238-2.765,2.765
	c0,1.527,1.237,2.765,2.765,2.765s2.765-1.237,2.765-2.765C36.061,31.757,34.823,30.519,33.296,30.519z"/>
</svg>
