<?xml version="1.0" encoding="utf-8"?>
<!-- Generator: Adobe Illustrator 16.0.3, SVG Export Plug-In . SVG Version: 6.00 Build 0)  -->
<!DOCTYPE svg PUBLIC "-//W3C//DTD SVG 1.1//EN" "http://www.w3.org/Graphics/SVG/1.1/DTD/svg11.dtd">
<svg version="1.1" id="Layer_1" xmlns="http://www.w3.org/2000/svg" xmlns:xlink="http://www.w3.org/1999/xlink" x="0px" y="0px"
	 width="50px" height="50px" viewBox="0 0 50 50" enable-background="new 0 0 50 50" xml:space="preserve">
<path d="M49.887,29.135v8.297c0,2.291-1.855,4.147-4.146,4.147H4.262c-2.291,0-4.148-1.856-4.148-4.147v-8.297
	c0-2.289,1.857-4.147,4.148-4.147H45.74C48.029,24.988,49.887,26.846,49.887,29.135z M45.738,22.223c0.914,0,1.816,0.18,2.66,0.532
	l-8.342-12.511c-0.77-1.154-2.063-1.847-3.451-1.847h-23.21c-1.387,0-2.682,0.693-3.451,1.847L1.602,22.755
	c0.843-0.353,1.747-0.533,2.66-0.532H45.738z M41.592,30.52c-1.527,0-2.766,1.237-2.766,2.765c0,1.526,1.238,2.765,2.766,2.765
	c1.526,0,2.766-1.236,2.766-2.765C44.355,31.757,43.118,30.52,41.592,30.52z M33.296,30.52c-1.526,0-2.765,1.237-2.765,2.765
	c0,1.526,1.236,2.765,2.765,2.765s2.765-1.236,2.765-2.765C36.061,31.757,34.822,30.52,33.296,30.52z"/>
</svg>
