<?xml version="1.0" encoding="utf-8"?>
<!-- Generator: Adobe Illustrator 16.0.3, SVG Export Plug-In . SVG Version: 6.00 Build 0)  -->
<!DOCTYPE svg PUBLIC "-//W3C//DTD SVG 1.1//EN" "http://www.w3.org/Graphics/SVG/1.1/DTD/svg11.dtd">
<svg version="1.1" id="Layer_1" xmlns="http://www.w3.org/2000/svg" xmlns:xlink="http://www.w3.org/1999/xlink" x="0px" y="0px"
	 width="50px" height="50px" viewBox="0 0 50 50" enable-background="new 0 0 50 50" xml:space="preserve">
<g>
	<path fill-rule="evenodd" clip-rule="evenodd" fill="#FFFFFF" d="M0.394,16.055c0-4.136,0-8.274,0-12.411
		c0.028-0.06,0.061-0.119,0.083-0.181c0.211-0.587,0.747-0.968,1.37-0.968c5.409,0,10.818-0.001,16.227,0
		c0.799,0,1.44,0.647,1.443,1.45c0.001,0.436,0,0.873,0.001,1.31c0,0.058,0.011,0.116,0.017,0.182c0.989,0,1.962-0.001,2.935,0
		c0.816,0.001,1.46,0.642,1.46,1.456c0.001,4.419,0.001,8.84,0,13.261c0,0.827-0.642,1.463-1.475,1.464
		c-1.471,0.001-2.942,0.001-4.413,0c-0.829,0-1.466-0.641-1.467-1.473c-0.001-0.896,0-1.792,0-2.689c0-0.08,0-0.161,0-0.241
		c-1.725,0-3.414,0-5.136,0c0.489,0.98,0.968,1.941,1.457,2.921c-1.971,0-3.911,0-5.882,0c0.49-0.981,0.97-1.942,1.463-2.932
		c-0.121,0-0.204,0-0.286,0c-2.115,0-4.229,0-6.344,0c-0.623,0-1.158-0.38-1.37-0.968C0.454,16.174,0.421,16.115,0.394,16.055z
		 M16.575,14.254c0-0.09,0-0.158,0-0.227c0-2.366,0-4.732-0.001-7.1c0-0.737,0.476-1.326,1.197-1.473
		c0.087-0.018,0.176-0.023,0.256-0.032c0-0.495,0-0.973,0-1.445c-5.394,0-10.768,0-16.149,0c0,3.431,0,6.851,0,10.277
		C6.776,14.254,11.661,14.254,16.575,14.254z M22.449,6.923c-1.476,0-2.934,0-4.385,0c0,0.493,0,0.971,0,1.443
		c1.471,0,2.923,0,4.385,0C22.449,7.883,22.449,7.412,22.449,6.923z M18.06,9.853c0,0.498,0,0.976,0,1.451c1.472,0,2.929,0,4.38,0
		c0-0.494,0-0.97,0-1.451C20.976,9.853,19.529,9.853,18.06,9.853z M20.248,17.196c0.4,0.003,0.73-0.324,0.732-0.723
		c0.002-0.4-0.324-0.729-0.723-0.732c-0.401-0.002-0.73,0.322-0.732,0.724C19.521,16.865,19.848,17.194,20.248,17.196z
		 M20.98,19.413c0-0.401-0.326-0.729-0.725-0.73c-0.402-0.001-0.729,0.325-0.73,0.727c-0.001,0.4,0.325,0.729,0.726,0.729
		C20.651,20.14,20.979,19.813,20.98,19.413z"/>
	<path fill-rule="evenodd" clip-rule="evenodd" fill="#FFFFFF" d="M26.61,16.055c0-4.136,0-8.274,0-12.411
		c0.027-0.06,0.061-0.119,0.082-0.181c0.211-0.587,0.747-0.968,1.371-0.968c5.409,0,10.817-0.001,16.227,0
		c0.798,0,1.439,0.647,1.442,1.45c0.002,0.436,0,0.873,0.001,1.31c0.001,0.058,0.011,0.116,0.018,0.182c0.988,0,1.961-0.001,2.935,0
		c0.815,0.001,1.46,0.642,1.46,1.456c0.001,4.419,0.001,8.84,0,13.261c0,0.827-0.643,1.463-1.475,1.464
		c-1.471,0.001-2.942,0.001-4.413,0c-0.829,0-1.466-0.641-1.467-1.473c-0.001-0.896,0-1.792,0-2.689c0-0.08,0-0.161,0-0.241
		c-1.725,0-3.414,0-5.137,0c0.49,0.98,0.969,1.941,1.458,2.921c-1.971,0-3.911,0-5.883,0c0.49-0.981,0.97-1.942,1.463-2.932
		c-0.121,0-0.203,0-0.286,0c-2.114,0-4.229,0-6.343,0c-0.624,0-1.159-0.38-1.371-0.968C26.671,16.174,26.638,16.115,26.61,16.055z
		 M42.791,14.254c0-0.09,0-0.158,0-0.227c-0.001-2.366,0-4.732-0.001-7.1c-0.001-0.737,0.476-1.326,1.197-1.473
		c0.087-0.018,0.176-0.023,0.257-0.032c0-0.495,0-0.973,0-1.445c-5.395,0-10.769,0-16.15,0c0,3.431,0,6.851,0,10.277
		C32.992,14.254,37.877,14.254,42.791,14.254z M48.665,6.923c-1.476,0-2.934,0-4.385,0c0,0.493,0,0.971,0,1.443
		c1.471,0,2.923,0,4.385,0C48.665,7.883,48.665,7.412,48.665,6.923z M44.276,9.853c0,0.498,0,0.976,0,1.451c1.473,0,2.929,0,4.381,0
		c0-0.494,0-0.97,0-1.451C47.191,9.853,45.744,9.853,44.276,9.853z M46.464,17.196c0.4,0.003,0.73-0.324,0.732-0.723
		c0.003-0.4-0.324-0.729-0.724-0.732c-0.401-0.002-0.73,0.322-0.732,0.724C45.738,16.865,46.064,17.194,46.464,17.196z
		 M47.196,19.413c0.001-0.401-0.326-0.729-0.726-0.73c-0.401-0.001-0.729,0.325-0.73,0.727c-0.001,0.4,0.326,0.729,0.727,0.729
		S47.195,19.813,47.196,19.413z"/>
	<path fill-rule="evenodd" clip-rule="evenodd" fill="#FFFFFF" d="M0.394,42.386c0-4.136,0-8.273,0-12.411
		c0.028-0.061,0.061-0.119,0.083-0.181c0.211-0.587,0.747-0.969,1.37-0.969c5.409,0,10.818-0.001,16.227,0.001
		c0.799,0,1.44,0.647,1.443,1.449c0.001,0.438,0,0.873,0.001,1.311c0,0.058,0.011,0.115,0.017,0.182c0.989,0,1.962-0.001,2.935,0
		c0.816,0.001,1.46,0.642,1.46,1.456c0.001,4.419,0.001,8.84,0,13.261c0,0.827-0.642,1.463-1.475,1.464
		c-1.471,0.001-2.942,0.001-4.413,0c-0.829-0.001-1.466-0.641-1.467-1.473c-0.001-0.896,0-1.793,0-2.689c0-0.08,0-0.159,0-0.24
		c-1.725,0-3.414,0-5.136,0c0.489,0.979,0.968,1.94,1.457,2.921c-1.971,0-3.911,0-5.882,0c0.49-0.981,0.97-1.941,1.463-2.932
		c-0.121,0-0.204,0-0.286,0c-2.115,0-4.229,0-6.344-0.001c-0.623,0-1.158-0.38-1.37-0.967C0.454,42.505,0.421,42.446,0.394,42.386z
		 M16.575,40.585c0-0.09,0-0.158,0-0.227c0-2.366,0-4.733-0.001-7.101c0-0.736,0.476-1.325,1.197-1.472
		c0.087-0.019,0.176-0.023,0.256-0.032c0-0.496,0-0.974,0-1.445c-5.394,0-10.768,0-16.149,0c0,3.431,0,6.85,0,10.276
		C6.776,40.585,11.661,40.585,16.575,40.585z M22.449,33.254c-1.476,0-2.934,0-4.385,0c0,0.493,0,0.972,0,1.444
		c1.471,0,2.923,0,4.385,0C22.449,34.214,22.449,33.742,22.449,33.254z M18.06,36.185c0,0.497,0,0.975,0,1.451
		c1.472,0,2.929,0,4.38,0c0-0.494,0-0.971,0-1.451C20.976,36.185,19.529,36.185,18.06,36.185z M20.248,43.527
		c0.4,0.003,0.73-0.324,0.732-0.723c0.002-0.4-0.324-0.73-0.723-0.733c-0.401-0.002-0.73,0.323-0.732,0.725
		C19.521,43.196,19.848,43.525,20.248,43.527z M20.98,45.743c0-0.399-0.326-0.729-0.725-0.729c-0.402-0.001-0.729,0.325-0.73,0.727
		c-0.001,0.4,0.325,0.729,0.726,0.729C20.651,46.471,20.979,46.144,20.98,45.743z"/>
	<path fill-rule="evenodd" clip-rule="evenodd" fill="#FFFFFF" d="M26.61,42.386c0-4.136,0-8.273,0-12.411
		c0.027-0.061,0.061-0.119,0.082-0.181c0.211-0.587,0.747-0.969,1.371-0.969c5.409,0,10.817-0.001,16.227,0.001
		c0.798,0,1.439,0.647,1.442,1.449c0.002,0.438,0,0.873,0.001,1.311c0.001,0.058,0.011,0.115,0.018,0.182
		c0.988,0,1.961-0.001,2.935,0c0.815,0.001,1.46,0.642,1.46,1.456c0.001,4.419,0.001,8.84,0,13.261c0,0.827-0.643,1.463-1.475,1.464
		c-1.471,0.001-2.942,0.001-4.413,0c-0.829-0.001-1.466-0.641-1.467-1.473c-0.001-0.896,0-1.793,0-2.689c0-0.08,0-0.159,0-0.24
		c-1.725,0-3.414,0-5.137,0c0.49,0.979,0.969,1.94,1.458,2.921c-1.971,0-3.911,0-5.883,0c0.49-0.981,0.97-1.941,1.463-2.932
		c-0.121,0-0.203,0-0.286,0c-2.114,0-4.229,0-6.343-0.001c-0.624,0-1.159-0.38-1.371-0.967
		C26.671,42.505,26.638,42.446,26.61,42.386z M42.791,40.585c0-0.09,0-0.158,0-0.227c-0.001-2.366,0-4.733-0.001-7.101
		c-0.001-0.736,0.476-1.325,1.197-1.472c0.087-0.019,0.176-0.023,0.257-0.032c0-0.496,0-0.974,0-1.445c-5.395,0-10.769,0-16.15,0
		c0,3.431,0,6.85,0,10.276C32.992,40.585,37.877,40.585,42.791,40.585z M48.665,33.254c-1.476,0-2.934,0-4.385,0
		c0,0.493,0,0.972,0,1.444c1.471,0,2.923,0,4.385,0C48.665,34.214,48.665,33.742,48.665,33.254z M44.276,36.185
		c0,0.497,0,0.975,0,1.451c1.473,0,2.929,0,4.381,0c0-0.494,0-0.971,0-1.451C47.191,36.185,45.744,36.185,44.276,36.185z
		 M46.464,43.527c0.4,0.003,0.73-0.324,0.732-0.723c0.003-0.4-0.324-0.73-0.724-0.733c-0.401-0.002-0.73,0.323-0.732,0.725
		C45.738,43.196,46.064,43.525,46.464,43.527z M47.196,45.743c0.001-0.399-0.326-0.729-0.726-0.729
		c-0.401-0.001-0.729,0.325-0.73,0.727c-0.001,0.4,0.326,0.729,0.727,0.729S47.195,46.144,47.196,45.743z"/>
</g>
</svg>
