<?xml version="1.0" encoding="utf-8"?>
<!-- Generator: Adobe Illustrator 16.0.3, SVG Export Plug-In . SVG Version: 6.00 Build 0)  -->
<!DOCTYPE svg PUBLIC "-//W3C//DTD SVG 1.1//EN" "http://www.w3.org/Graphics/SVG/1.1/DTD/svg11.dtd">
<svg version="1.1" id="Layer_1" xmlns="http://www.w3.org/2000/svg" xmlns:xlink="http://www.w3.org/1999/xlink" x="0px" y="0px"
	 width="50px" height="50px" viewBox="0 0 50 50" enable-background="new 0 0 50 50" xml:space="preserve">
<g>
	<g>
		<ellipse fill="#FFFFFF" cx="16.402" cy="13.618" rx="3.428" ry="3.422"/>
		<path fill="#FFFFFF" d="M18.752,18.019h-0.254c-0.636,0.305-1.344,0.489-2.096,0.489c-0.753,0-1.458-0.184-2.097-0.489H14.05
			c-1.947,0-3.526,1.576-3.526,3.52v0.88c0,0.81,0.658,1.467,1.469,1.467h8.815c0.812,0,1.47-0.657,1.47-1.467v-0.88
			C22.279,19.595,20.699,18.019,18.752,18.019z"/>
	</g>
	<g>
		<ellipse fill="#FFFFFF" cx="16.402" cy="29.818" rx="3.428" ry="3.422"/>
		<path fill="#FFFFFF" d="M18.752,34.218h-0.254c-0.636,0.306-1.344,0.489-2.096,0.489c-0.753,0-1.458-0.184-2.097-0.489H14.05
			c-1.947,0-3.526,1.576-3.526,3.521v0.879c0,0.81,0.658,1.468,1.469,1.468h8.815c0.812,0,1.47-0.658,1.47-1.468v-0.879
			C22.279,35.794,20.699,34.218,18.752,34.218z"/>
	</g>
	<g>
		<ellipse fill="#FFFFFF" cx="33.598" cy="13.618" rx="3.428" ry="3.422"/>
		<path fill="#FFFFFF" d="M35.947,18.019h-0.254c-0.636,0.305-1.344,0.489-2.096,0.489c-0.754,0-1.458-0.184-2.098-0.489h-0.254
			c-1.947,0-3.526,1.576-3.526,3.52v0.88c0,0.81,0.658,1.467,1.47,1.467h8.815c0.811,0,1.469-0.657,1.469-1.467v-0.88
			C39.474,19.595,37.896,18.019,35.947,18.019z"/>
	</g>
	<g>
		<ellipse fill="#FFFFFF" cx="33.598" cy="29.818" rx="3.428" ry="3.422"/>
		<path fill="#FFFFFF" d="M35.947,34.218h-0.254c-0.636,0.306-1.344,0.489-2.096,0.489c-0.754,0-1.458-0.184-2.098-0.489h-0.254
			c-1.947,0-3.526,1.576-3.526,3.521v0.879c0,0.81,0.658,1.468,1.47,1.468h8.815c0.811,0,1.469-0.658,1.469-1.468v-0.879
			C39.474,35.794,37.896,34.218,35.947,34.218z"/>
	</g>
	<path fill="#FFFFFF" d="M43.049,31.579v11.393H7.175V7.162h25.763c0.358,0,0.694-0.146,0.952-0.392l4.483-4.476
		C39.228,1.443,38.621,0,37.421,0H5.382C2.41,0,0,2.406,0,5.372v39.392c0,2.965,2.41,5.37,5.382,5.37h39.461
		c2.971,0,5.382-2.405,5.382-5.37V27.104c0-1.198-1.447-1.791-2.299-0.952l-4.484,4.477C43.195,30.887,43.049,31.223,43.049,31.579z
		"/>
</g>
</svg>
