<?xml version="1.0" encoding="utf-8"?>
<!-- Generator: Adobe Illustrator 16.0.3, SVG Export Plug-In . SVG Version: 6.00 Build 0)  -->
<!DOCTYPE svg PUBLIC "-//W3C//DTD SVG 1.1//EN" "http://www.w3.org/Graphics/SVG/1.1/DTD/svg11.dtd">
<svg version="1.1" id="Layer_1" xmlns="http://www.w3.org/2000/svg" xmlns:xlink="http://www.w3.org/1999/xlink" x="0px" y="0px"
	 width="50px" height="50px" viewBox="0 0 50 50" enable-background="new 0 0 50 50" xml:space="preserve">
<path fill="#FFFFFF" d="M38.78,6.463h-7.69c0-3.394-2.76-6.153-6.153-6.153c-3.394,0-6.153,2.759-6.153,6.153h-7.691
	c-2.548,0-4.614,2.067-4.614,4.615v33.841c0,2.547,2.066,4.614,4.614,4.614H38.78c2.549,0,4.615-2.067,4.615-4.614V11.078
	C43.396,8.53,41.329,6.463,38.78,6.463z M15.708,41.072c-1.279,0-2.307-1.028-2.307-2.307c0-1.279,1.028-2.308,2.307-2.308
	c1.278,0,2.308,1.028,2.308,2.308C18.015,40.044,16.986,41.072,15.708,41.072z M15.708,31.843c-1.279,0-2.307-1.028-2.307-2.307
	c0-1.279,1.028-2.308,2.307-2.308c1.278,0,2.308,1.028,2.308,2.308C18.015,30.814,16.986,31.843,15.708,31.843z M15.708,22.615
	c-1.279,0-2.307-1.029-2.307-2.308S14.429,18,15.708,18c1.278,0,2.308,1.028,2.308,2.307S16.986,22.615,15.708,22.615z
	 M24.937,4.155c1.279,0,2.308,1.029,2.308,2.308c0,1.278-1.028,2.307-2.308,2.307c-1.278,0-2.307-1.029-2.307-2.307
	C22.629,5.184,23.659,4.155,24.937,4.155z M37.242,39.535c0,0.423-0.346,0.769-0.769,0.769H22.629c-0.423,0-0.769-0.346-0.769-0.769
	v-1.538c0-0.424,0.345-0.771,0.769-0.771h13.844c0.423,0,0.769,0.347,0.769,0.771V39.535z M37.242,30.306
	c0,0.423-0.346,0.77-0.769,0.77H22.629c-0.423,0-0.769-0.347-0.769-0.77v-1.539c0-0.423,0.345-0.77,0.769-0.77h13.844
	c0.423,0,0.769,0.347,0.769,0.77V30.306z M37.242,21.076c0,0.422-0.346,0.769-0.769,0.769H22.629c-0.423,0-0.769-0.346-0.769-0.769
	v-1.539c0-0.423,0.345-0.769,0.769-0.769h13.844c0.423,0,0.769,0.346,0.769,0.769V21.076z"/>
</svg>
