<?xml version="1.0" encoding="utf-8"?>
<!-- Generator: Adobe Illustrator 16.0.3, SVG Export Plug-In . SVG Version: 6.00 Build 0)  -->
<!DOCTYPE svg PUBLIC "-//W3C//DTD SVG 1.1//EN" "http://www.w3.org/Graphics/SVG/1.1/DTD/svg11.dtd">
<svg version="1.1" id="Layer_1" xmlns="http://www.w3.org/2000/svg" xmlns:xlink="http://www.w3.org/1999/xlink" x="0px" y="0px"
	 width="50px" height="50px" viewBox="0 0 50 50" enable-background="new 0 0 50 50" xml:space="preserve">
<g>
	<path fill="#FFFFFF" d="M25.198,24.836c6.838,0,12.372-5.536,12.372-12.374c0-6.837-5.534-12.373-12.372-12.373
		S12.825,5.625,12.825,12.462C12.825,19.301,18.36,24.836,25.198,24.836z"/>
	<path fill="#FFFFFF" d="M33.683,28.371h-0.918c-2.298,1.104-4.85,1.769-7.566,1.769c-2.718,0-5.259-0.664-7.567-1.769h-0.917
		c-7.026,0-12.727,5.7-12.727,12.727v3.182c0,2.928,2.375,5.302,5.303,5.302h31.816c2.927,0,5.302-2.374,5.302-5.302v-3.182
		C46.408,34.071,40.709,28.371,33.683,28.371z"/>
</g>
</svg>
