<?xml version="1.0" encoding="utf-8"?>
<!-- Generator: Adobe Illustrator 16.0.3, SVG Export Plug-In . SVG Version: 6.00 Build 0)  -->
<!DOCTYPE svg PUBLIC "-//W3C//DTD SVG 1.1//EN" "http://www.w3.org/Graphics/SVG/1.1/DTD/svg11.dtd">
<svg version="1.1" id="Layer_1" xmlns="http://www.w3.org/2000/svg" xmlns:xlink="http://www.w3.org/1999/xlink" x="0px" y="0px"
	 width="50px" height="50px" viewBox="0 0 50 50" enable-background="new 0 0 50 50" xml:space="preserve">
<path fill="#FFFFFF" d="M24.75,24.975c6.815,0,12.336-5.602,12.336-12.513c0-6.913-5.521-12.513-12.336-12.513
	c-6.813,0-12.336,5.601-12.336,12.513C12.414,19.373,17.937,24.975,24.75,24.975z M33.984,28.161l-4.607,18.711l-3.085-13.296
	l3.085-5.473h-9.253l3.084,5.473l-3.084,13.296l-4.607-18.711c-6.872,0.332-12.356,6.031-12.356,13.08v4.066
	C3.161,47.898,5.233,50,7.788,50h33.925c2.556,0,4.627-2.102,4.627-4.692v-4.066C46.34,34.192,40.855,28.493,33.984,28.161z"/>
</svg>
